<?xml version="1.0" encoding="utf-8"?>
<!-- Generator: Adobe Illustrator 25.2.0, SVG Export Plug-In . SVG Version: 6.00 Build 0)  -->
<svg version="1.1" id="Layer_1" xmlns="http://www.w3.org/2000/svg" xmlns:xlink="http://www.w3.org/1999/xlink" x="0px" y="0px"
	 viewBox="0 0 680 460" style="enable-background:new 0 0 680 460;" xml:space="preserve">
<style type="text/css">
	.st0{fill:#E6E7E8;}
	.st1{fill:#DE333A;}
</style>
<rect x="-6.19" y="-2.12" class="st0" width="696.37" height="466.32"/>
<g>
	<g>
		<g>
			<path class="st1" d="M357.56,217.62c-3.38,0-6.12,2.74-6.12,6.12v0.09c0,3.38,2.74,6.12,6.12,6.12c3.38,0,6.12-2.74,6.12-6.12
				v-0.09C363.68,220.36,360.94,217.62,357.56,217.62z"/>
		</g>
	</g>
	<g>
		<g>
			<path class="st1" d="M392.87,244.6v-50.25c0-1.94-0.92-3.77-2.48-4.92c-1.56-1.15-3.58-1.5-5.43-0.93l-137.31,42.05H212.6
				c-22.55,0-40.91,18.35-40.91,40.9c0,21.34,16.43,38.91,37.3,40.74l13.48,64.61c2.21,10.62,11.7,18.33,22.55,18.33
				c6.96,0,13.48-3.1,17.87-8.5c4.39-5.4,6.1-12.41,4.67-19.23l-2.95-14.16c12.92-3.99,22.7-14.71,25.55-27.86l94.79,29.03
				c0.59,0.18,1.19,0.27,1.79,0.27c1.3,0,2.57-0.41,3.64-1.2c1.56-1.15,2.48-2.98,2.48-4.92v-50.25
				c12.25-2.79,21.42-13.76,21.42-26.85C414.29,258.37,405.11,247.39,392.87,244.6z M212.6,300.11c-15.8,0-28.66-12.86-28.66-28.66
				c0-15.8,12.86-28.66,28.66-28.66h29.84v57.32h-28.42L212.6,300.11L212.6,300.11z M253.39,378.9c-2.06,2.53-5.11,3.98-8.37,3.98
				c-5.08,0-9.52-3.61-10.56-8.58l-12.92-61.94h22.04l7.82,37.5c0,0,0,0.01,0,0.01l4.18,20.02
				C256.25,373.08,255.45,376.37,253.39,378.9z M262.1,341.17l-5.43-26.05l21.73,6.65C276.84,330.7,270.57,338.12,262.1,341.17z
				 M380.62,340.27L380.62,340.27l-16.94-5.19V248.3c0-3.38-2.74-6.12-6.12-6.12c-3.38,0-6.12,2.74-6.12,6.12v83.04l-63.81-19.54
				c-0.59-0.3-1.24-0.5-1.93-0.59l-31.02-9.5v-60.51l125.94-38.57L380.62,340.27L380.62,340.27z M392.87,285.46v-28.03
				c5.39,2.37,9.17,7.76,9.17,14.01C402.04,277.71,398.26,283.09,392.87,285.46z"/>
		</g>
	</g>
	<g>
		<g>
			<path class="st1" d="M459.29,265.32h-27.31c-3.38,0-6.12,2.74-6.12,6.12c0,3.38,2.74,6.12,6.12,6.12h27.31
				c3.38,0,6.12-2.74,6.12-6.12C465.41,268.07,462.67,265.32,459.29,265.32z"/>
		</g>
	</g>
	<g>
		<g>
			<path class="st1" d="M441.82,218.09c-1.99-2.73-5.82-3.33-8.55-1.34l-13.74,10.02c-2.73,1.99-3.33,5.82-1.34,8.55
				c1.2,1.64,3.06,2.51,4.95,2.51c1.25,0,2.51-0.38,3.6-1.18l13.74-10.02C443.22,224.65,443.82,220.82,441.82,218.09z"/>
		</g>
	</g>
	<g>
		<g>
			<path class="st1" d="M440.49,316.25l-13.66-9.96c-2.73-1.99-6.56-1.39-8.55,1.34c-1.99,2.73-1.39,6.56,1.34,8.55l13.66,9.96
				c1.09,0.79,2.35,1.18,3.6,1.18c1.89,0,3.75-0.87,4.95-2.52C443.82,322.07,443.22,318.24,440.49,316.25z"/>
		</g>
	</g>
	<g>
		<g>
			<path class="st1" d="M450.65,136.75H323.56c-3.38,0-6.12,2.74-6.12,6.12c0,3.38,2.74,6.12,6.12,6.12h127.09
				c3.38,0,6.12-2.74,6.12-6.12C456.77,139.49,454.03,136.75,450.65,136.75z"/>
		</g>
	</g>
	<g>
		<g>
			<path class="st1" d="M261.48,138.54c-1.14-1.14-2.72-1.79-4.33-1.79c-1.61,0-3.19,0.65-4.33,1.79c-1.14,1.14-1.79,2.72-1.79,4.33
				s0.65,3.19,1.79,4.33c1.14,1.14,2.72,1.79,4.33,1.79c1.61,0,3.19-0.65,4.33-1.79c1.14-1.14,1.79-2.72,1.79-4.33
				S262.62,139.68,261.48,138.54z"/>
		</g>
	</g>
	<g>
		<g>
			<path class="st1" d="M238.98,138.54c-1.14-1.14-2.72-1.79-4.33-1.79c-1.61,0-3.19,0.65-4.33,1.79c-1.14,1.14-1.79,2.72-1.79,4.33
				s0.65,3.19,1.79,4.33c1.14,1.14,2.72,1.79,4.33,1.79c1.61,0,3.19-0.65,4.33-1.79c1.14-1.14,1.79-2.72,1.79-4.33
				S240.12,139.68,238.98,138.54z"/>
		</g>
	</g>
	<g>
		<g>
			<path class="st1" d="M283.98,138.54c-1.14-1.14-2.72-1.79-4.33-1.79c-1.62,0-3.19,0.65-4.33,1.79c-1.14,1.14-1.79,2.72-1.79,4.33
				s0.65,3.19,1.79,4.33c1.14,1.14,2.72,1.79,4.33,1.79c1.61,0,3.18-0.65,4.33-1.79c1.14-1.14,1.79-2.72,1.79-4.33
				S285.12,139.68,283.98,138.54z"/>
		</g>
	</g>
	<g>
		<g>
			<path class="st1" d="M461.43,114.71H223.87c-14.18,0-25.71,11.54-25.71,25.71v83.88c0,3.38,2.74,6.12,6.12,6.12
				c3.38,0,6.12-2.74,6.12-6.12v-23.83h38.15c3.38,0,6.12-2.74,6.12-6.12s-2.74-6.12-6.12-6.12H210.4v-17.19c0.02,0,0.04,0,0.07,0
				H474.9v159.19c0,7.43-6.04,13.47-13.47,13.47h-48.78c-3.38,0-6.12,2.74-6.12,6.12c0,3.38,2.74,6.12,6.12,6.12h48.78
				c14.18,0,25.71-11.54,25.71-25.71v-189.8C487.15,126.24,475.61,114.71,461.43,114.71z M474.9,158.79H210.47
				c-0.02,0-0.04,0-0.07,0v-18.37c0-7.43,6.04-13.47,13.47-13.47h237.56c7.43,0,13.47,6.04,13.47,13.47V158.79z"/>
		</g>
	</g>
	<g>
		<g>
			<path class="st1" d="M272.74,190.02c-1.14-1.14-2.72-1.79-4.33-1.79s-3.19,0.65-4.33,1.79c-1.14,1.14-1.79,2.72-1.79,4.33
				c0,1.61,0.65,3.19,1.79,4.33c1.14,1.14,2.72,1.79,4.33,1.79s3.19-0.65,4.33-1.79c1.14-1.14,1.79-2.72,1.79-4.33
				C274.54,192.73,273.88,191.15,272.74,190.02z"/>
		</g>
	</g>
</g>
</svg>
