<?xml version="1.0" encoding="utf-8"?>
<!-- Generator: Adobe Illustrator 25.2.0, SVG Export Plug-In . SVG Version: 6.00 Build 0)  -->
<svg version="1.1" id="Layer_1" xmlns="http://www.w3.org/2000/svg" xmlns:xlink="http://www.w3.org/1999/xlink" x="0px" y="0px"
	 viewBox="0 0 500 500" style="enable-background:new 0 0 500 500;" xml:space="preserve">
<style type="text/css">
	.st0{fill:#DE333A;}
	.st1{fill:#FFFFFF;}
</style>
<rect x="-88.13" y="-8.38" class="st0" width="697.41" height="545.17"/>
<g id="tutorial">
	<path class="st1" d="M361.24,341.31v6.58h8.9v-6.58c0.01-5.51-2.18-10.8-6.09-14.68l-4.11-4.11l-6.29,6.29l4.11,4.11
		C359.99,335.14,361.24,338.16,361.24,341.31L361.24,341.31z"/>
	<path class="st1" d="M135.96,326.61c-3.91,3.89-6.11,9.18-6.09,14.7v6.58h8.9v-6.58c-0.01-3.16,1.25-6.18,3.48-8.41l4.11-4.11
		l-6.29-6.29L135.96,326.61z"/>
	<path class="st1" d="M370.13,232.2c7.36-0.02,13.33-5.99,13.35-13.35v-71.19c-0.02-7.36-5.99-13.33-13.35-13.35h-31.15v-4.45
		c-0.02-7.36-5.99-13.33-13.35-13.35H174.36c-7.36,0.02-13.33,5.99-13.35,13.35h-4.45c-7.36,0.02-13.33,5.99-13.35,13.35v35.6
		c0.02,7.36,5.99,13.33,13.35,13.35h4.45v8.9h-40.04c-2.46,0-4.45,1.99-4.45,4.45v88.99c0,2.46,1.99,4.45,4.45,4.45h40.04v1.56
		l-30.03,13.21c-0.22,0.09-0.42,0.19-0.62,0.31c-8.64,5.35-13.88,14.8-13.84,24.96v40.04c0,2.46,1.99,4.45,4.45,4.45h40.04
		c12.29,0,22.25-9.96,22.25-22.25v-2.09l14.91-18.11c0.61-0.62,1.15-1.31,1.6-2.05h100.42c0.42,0.65,0.9,1.26,1.42,1.82l15.13,18.33
		v2.09c0,12.29,9.96,22.25,22.25,22.25h40.04c2.46,0,4.45-1.99,4.45-4.45v-40.04c0.04-10.16-5.2-19.61-13.84-24.96
		c-0.2-0.12-0.41-0.23-0.62-0.31l-24.29-10.72c2.03-2.37,3.15-5.38,3.16-8.5v-35.6c-0.03-5.64-3.59-10.66-8.9-12.55V232.2H370.13z
		 M156.56,183.26c-2.46,0-4.45-1.99-4.45-4.45v-35.6c0-2.46,1.99-4.45,4.45-4.45h53.39c2.46,0,4.45,1.99,4.45,4.45v35.6
		c0,2.46-1.99,4.45-4.45,4.45h-26.7c-2.46,0-4.45,1.99-4.45,4.45v0.58l-6.45-4.27c-0.72-0.49-1.57-0.76-2.45-0.76H156.56z
		 M125.42,290.04v-80.09H241.1v80.09H125.42z M191.53,335.12l-16.15,19.62c-0.66,0.78-1.02,1.78-1.02,2.8v3.69
		c-0.02,7.36-5.99,13.33-13.35,13.35h-35.6v-35.6c-0.05-7.01,3.53-13.55,9.48-17.26l26.12-11.52v15.44
		c-0.01,4.24,2.03,8.21,5.47,10.68l-13.66,13.79l6.32,6.27l27.28-27.5c0.7-0.73,1.66-1.15,2.67-1.16c1.01-0.01,1.98,0.41,2.67,1.16
		C193.36,330.69,193.26,333.43,191.53,335.12L191.53,335.12z M298.32,330.09h-96.64c-0.81-6.95-7.1-11.94-14.06-11.13
		c-2.87,0.33-5.54,1.64-7.57,3.7l-7.07,7.16c-1.81-0.59-3.05-2.27-3.07-4.18v-26.7h75.64c2.46,0,4.45-1.99,4.45-4.45v-88.99
		c0-2.46-1.99-4.45-4.45-4.45h-75.64v-8.01l10.9,7.25c2.05,1.35,4.81,0.78,6.16-1.27c0.47-0.72,0.73-1.56,0.73-2.42v-4.45h22.25
		c7.36-0.02,13.33-5.99,13.35-13.35v-35.6c-0.02-7.36-5.99-13.33-13.35-13.35h-40.04c0-2.46,1.99-4.45,4.45-4.45h151.28
		c2.46,0,4.45,1.99,4.45,4.45v4.45h-57.84c-7.36,0.02-13.33,5.99-13.35,13.35v71.19c0.02,7.36,5.99,13.33,13.35,13.35h57.84v13.35
		h-17.8v-4.45c0.01-1.64-0.9-3.16-2.36-3.92c-1.43-0.8-3.19-0.71-4.54,0.22l-12.24,8.14h-12.01c-7.36,0.02-13.33,5.99-13.35,13.35
		v35.6c0.02,7.36,5.99,13.33,13.35,13.35h48.94v17.8c-0.02,1.9-1.26,3.57-3.07,4.14l-7.03-7.07c-5.03-4.98-13.13-4.98-18.15,0
		C299.91,324.73,298.68,327.32,298.32,330.09L298.32,330.09z M307.84,254.45h26.7c2.46,0,4.45,1.99,4.45,4.45v35.6
		c0,2.46-1.99,4.45-4.45,4.45h-53.39c-2.46,0-4.45-1.99-4.45-4.45v-35.6c0-2.46,1.99-4.45,4.45-4.45h13.35
		c0.87,0,1.73-0.26,2.45-0.76l6.45-4.27V250C303.39,252.46,305.39,254.45,307.84,254.45L307.84,254.45z M365.11,321.72
		c5.94,3.72,9.53,10.25,9.48,17.26v35.6h-35.6c-7.36-0.02-13.33-5.99-13.35-13.35v-3.69c0-1.03-0.36-2.02-1.02-2.8l-16.37-19.89
		c-1.56-1.68-1.56-4.28,0-5.96c0.69-0.74,1.66-1.16,2.67-1.16c1.03,0.01,2.01,0.45,2.71,1.2l27.23,27.45l6.32-6.27l-13.66-13.75
		c3.42-2.5,5.46-6.48,5.47-10.72V310.2L365.11,321.72z M272.25,223.3c-2.46,0-4.45-1.99-4.45-4.45v-71.19
		c0-2.46,1.99-4.45,4.45-4.45h97.89c2.46,0,4.45,1.99,4.45,4.45v71.19c0,2.46-1.99,4.45-4.45,4.45H272.25z"/>
	<path class="st1" d="M276.7,152.11h8.9v8.9h-8.9V152.11z"/>
	<path class="st1" d="M294.49,152.11h71.19v8.9h-71.19V152.11z"/>
	<path class="st1" d="M276.7,187.71h88.99v8.9H276.7V187.71z"/>
	<path class="st1" d="M276.7,169.91h88.99v8.9H276.7V169.91z"/>
	<path class="st1" d="M276.7,205.51h88.99v8.9H276.7V205.51z"/>
	<path class="st1" d="M223.3,227.75h8.9v53.39h-8.9V227.75z"/>
	<path class="st1" d="M205.51,236.65h8.9v44.49h-8.9V236.65z"/>
	<path class="st1" d="M187.71,245.55h8.9v35.6h-8.9V245.55z"/>
	<path class="st1" d="M169.91,254.45h8.9v26.7h-8.9V254.45z"/>
	<path class="st1" d="M152.11,263.35h8.9v17.8h-8.9V263.35z"/>
	<path class="st1" d="M213.35,218.85h-12.3c-1.18,0-2.31,0.47-3.15,1.3l-12.04,12.04h-15.96c-1.49,0-2.88,0.74-3.7,1.98l-7.58,11.37
		h-6.52c-1.18,0-2.31,0.47-3.15,1.3l-13.35,13.35l6.29,6.29l12.04-12.04h7.06c1.49,0,2.88-0.74,3.7-1.98l7.58-11.37h15.42
		c1.18,0,2.31-0.47,3.15-1.3l12.04-12.04h11.51c0.69,0,1.37-0.16,1.99-0.47l17.8-8.9l-3.98-7.96L213.35,218.85z"/>
	<path class="st1" d="M134.31,214.4h31.15v8.9h-31.15V214.4z"/>
	<path class="st1" d="M134.31,227.75h17.8v8.9h-17.8V227.75z"/>
	<path class="st1" d="M134.31,272.25h8.9v8.9h-8.9V272.25z"/>
	<path class="st1" d="M250,298.94c-7.37,0-13.35,5.98-13.35,13.35c0,7.37,5.98,13.35,13.35,13.35s13.35-5.98,13.35-13.35
		C263.35,304.92,257.37,298.94,250,298.94z M250,316.74c-2.46,0-4.45-1.99-4.45-4.45c0-2.46,1.99-4.45,4.45-4.45
		s4.45,1.99,4.45,4.45C254.45,314.75,252.46,316.74,250,316.74z"/>
	<path class="st1" d="M161.01,147.66h8.9v8.9h-8.9V147.66z"/>
	<path class="st1" d="M178.81,147.66h26.7v8.9h-26.7V147.66z"/>
	<path class="st1" d="M161.01,165.46h44.49v8.9h-44.49V165.46z"/>
	<path class="st1" d="M285.6,263.35h8.9v8.9h-8.9V263.35z"/>
	<path class="st1" d="M303.39,263.35h26.7v8.9h-26.7V263.35z"/>
	<path class="st1" d="M285.6,281.15h44.49v8.9H285.6V281.15z"/>
</g>
</svg>
