<?xml version="1.0" encoding="utf-8"?>
<!-- Generator: Adobe Illustrator 25.2.0, SVG Export Plug-In . SVG Version: 6.00 Build 0)  -->
<svg version="1.1" id="Layer_1" xmlns="http://www.w3.org/2000/svg" xmlns:xlink="http://www.w3.org/1999/xlink" x="0px" y="0px"
	 viewBox="0 0 680 460" style="enable-background:new 0 0 680 460;" xml:space="preserve">
<style type="text/css">
	.st0{fill:#DE333A;}
	.st1{fill:#5CC9F4;}
	.st2{fill:#48ACE1;}
	.st3{fill:#F3FAFE;}
	.st4{fill:#FFF5F1;}
	.st5{fill:#F58759;}
	.st6{fill:#FDBF68;}
	.st7{fill:#FAAD68;}
	.st8{fill:#FFFDFA;}
	.st9{fill:#FCD4CF;}
	.st10{fill:#F9B8B1;}
	.st11{fill:#010101;}
</style>
<rect x="-11.37" y="-4.19" class="st0" width="697.41" height="464.19"/>
<g>
	<g>
		<path class="st1" d="M282.43,106.33h115.14c5.89,0,10.66,4.77,10.66,10.66v226.01c0,5.89-4.77,10.66-10.66,10.66H282.43
			c-5.89,0-10.66-4.77-10.66-10.66V116.99C271.77,111.11,276.54,106.33,282.43,106.33z"/>
		<path class="st2" d="M271.77,293.97h136.46v12.79H271.77V293.97z"/>
		<path class="st3" d="M316.55,311.02h46.91c5.89,0,10.66,4.77,10.66,10.66v4.26c0,5.89-4.77,10.66-10.66,10.66h-46.91
			c-5.89,0-10.66-4.77-10.66-10.66v-4.26C305.89,315.8,310.66,311.02,316.55,311.02z"/>
		<path class="st4" d="M221.66,136.18h236.67c2.94,0,5.33,2.39,5.33,5.33v147.12c0,2.94-2.39,5.33-5.33,5.33H221.66
			c-2.94,0-5.33-2.39-5.33-5.33V141.51C216.33,138.57,218.72,136.18,221.66,136.18z"/>
		<path class="st5" d="M216.33,259.85v28.78c0,2.94,2.39,5.33,5.33,5.33h236.67c2.94,0,5.33-2.39,5.33-5.33v-28.78H216.33z"/>
		<path class="st5" d="M258.98,230v-68.23l68.23,34.11L258.98,230z"/>
		<g>
			<path class="st5" d="M438.08,247.06h-76.76l0,0v-85.29c0-21.2,17.18-38.38,38.38-38.38c21.2,0,38.38,17.18,38.38,38.38V247.06
				L438.08,247.06z"/>
			<path class="st6" d="M446.46,293.97c0.1-1.37,0.14-2.79,0.14-4.26c0-30.62-12.79-76.76-46.91-76.76s-46.91,46.14-46.91,76.76
				c0,1.47,0.05,2.9,0.14,4.26H446.46z"/>
			<path class="st7" d="M369.33,237.46h-4.67c-8.33,15.72-11.87,36.13-11.87,52.24c0,1.47,0.05,2.9,0.14,4.26h26.67L369.33,237.46z"
				/>
			<path class="st8" d="M425.29,221.47l-8.53,29.85l-17.06-12.79l12.79-21.32L425.29,221.47z"/>
			<path class="st8" d="M374.11,221.47l8.53,29.85l17.06-12.79l-12.79-21.32L374.11,221.47z"/>
			<path class="st9" d="M391.17,195.89h17.06l4.26,21.32l-12.79,21.32l-12.79-21.32L391.17,195.89z"/>
			<path class="st10" d="M408.23,195.89h-17.06l-2.61,13.04l0.71,0.43c6.41,3.85,14.43,3.85,20.84,0l0.71-0.43L408.23,195.89z"/>
			<path class="st9" d="M382.64,166.03c10.81,0,20.45-6.79,24.1-16.97c8.12,0.87,14.28,7.73,14.28,15.9v20.62
				c0,3.74-1.96,7.22-5.18,9.14l-10.66,6.4c-3.38,2.03-7.59,2.03-10.97,0l-10.66-6.4c-3.21-1.93-5.18-5.4-5.18-9.14v-19.55H382.64z"
				/>
		</g>
	</g>
	<path class="st9" d="M314.41,225.74h36.25c5.89,0,10.66,4.77,10.66,10.66v10.66l0,0h-25.59
		C323.96,247.06,314.41,237.51,314.41,225.74L314.41,225.74z"/>
	<path class="st6" d="M361.32,247.06h-17.06v36.25c0,5.89,4.77,10.66,10.66,10.66h14.93L361.32,247.06z"/>
	<path class="st11" d="M267.51,306.76v36.25c0.01,8.24,6.69,14.92,14.93,14.93h78.89v-8.53h-78.89c-3.53,0-6.39-2.87-6.4-6.4v-36.25
		H267.51z"/>
	<path class="st11" d="M403.97,343.01c0,3.53-2.87,6.39-6.4,6.4h-27.72v8.53h27.72c8.24-0.01,14.92-6.69,14.93-14.93v-36.25h-8.53
		V343.01z"/>
	<path class="st11" d="M363.45,306.76h-46.91c-8.24,0.01-14.92,6.69-14.93,14.93v4.26c0.01,8.24,6.69,14.92,14.93,14.93h46.91
		c8.24-0.01,14.92-6.69,14.93-14.93v-4.26C378.37,313.44,371.69,306.77,363.45,306.76z M369.85,325.95c0,3.53-2.87,6.39-6.4,6.4
		h-46.91c-3.53,0-6.39-2.87-6.4-6.4v-4.26c0-3.53,2.87-6.39,6.4-6.4h46.91c3.53,0,6.39,2.87,6.4,6.4V325.95z"/>
	<path class="st11" d="M260.88,157.96c-2.11-1.05-4.67-0.2-5.72,1.91c-0.3,0.59-0.45,1.25-0.45,1.91V230c0,2.36,1.91,4.26,4.26,4.26
		c0.66,0,1.31-0.15,1.91-0.45l68.23-34.11c2.11-1.05,2.96-3.62,1.91-5.72c-0.41-0.82-1.08-1.49-1.91-1.91L260.88,157.96z
		 M263.24,223.1v-54.43l54.43,27.22L263.24,223.1z"/>
	<path class="st11" d="M229.13,272.64h17.06v8.53h-17.06V272.64z"/>
	<path class="st11" d="M254.71,272.64h38.38v8.53h-38.38V272.64z"/>
	<path class="st11" d="M301.62,272.64h8.53v8.53h-8.53V272.64z"/>
	<path class="st11" d="M318.68,272.64h8.53v8.53h-8.53V272.64z"/>
	<path class="st11" d="M442.34,140.45h15.99c0.59,0,1.07,0.48,1.07,1.07V230h8.53v-88.49c-0.01-5.3-4.3-9.59-9.59-9.59h-15.99
		V140.45z"/>
	<path class="st11" d="M221.66,298.23h236.67c5.3-0.01,9.59-4.3,9.59-9.59v-50.11h-8.53v17.06h-13.12
		c-1.01-3.72-2.21-7.38-3.6-10.96c-0.11-0.28-0.22-0.57-0.34-0.85v-56.42h-8.53v40.46c-5.11-7.21-11.17-12.5-17.98-15.65
		l-2.22-11.12l4.43-2.66c4.48-2.71,7.23-7.56,7.25-12.8v-20.62c0.02-10.36-7.79-19.06-18.1-20.14c-1.96-0.21-3.8,0.95-4.47,2.8
		c-3.05,8.47-11.08,14.13-20.08,14.14h-4.26c-2.36,0-4.26,1.91-4.26,4.26v19.55c0.01,5.24,2.76,10.09,7.25,12.8l4.43,2.66
		l-2.22,11.12c-6.8,3.15-12.86,8.46-17.98,15.66v-66.05c0-18.84,15.27-34.11,34.11-34.11s34.11,15.27,34.11,34.11v17.06h8.53v-17.06
		c-0.02-18.62-12.1-35.08-29.85-40.68v-4.09c-0.01-8.24-6.69-14.92-14.93-14.93H282.43c-8.24,0.01-14.92,6.69-14.93,14.93v6.4h8.53
		v-6.4c0-3.53,2.87-6.39,6.4-6.4h115.14c3.53,0,6.39,2.87,6.4,6.4v2.35c-1.4-0.14-2.82-0.21-4.26-0.21
		c-23.54,0.03-42.62,19.1-42.64,42.64v61.14c-2-0.95-4.18-1.44-6.4-1.44h-36.25c-2.36,0-4.26,1.91-4.26,4.26
		c0.02,14.12,11.46,25.57,25.59,25.59H340v31.98c0,2.21,0.49,4.4,1.44,6.4H221.66c-0.59,0-1.07-0.48-1.07-1.07v-24.52h106.61v-8.53
		H220.6v-76.76h-8.53v109.81C212.08,293.93,216.37,298.22,221.66,298.23L221.66,298.23z M459.4,264.11v24.52
		c0,0.59-0.48,1.07-1.07,1.07h-7.46c-0.03-8.59-0.89-17.16-2.58-25.59H459.4z M434.47,247.06c0.09,0.22,0.18,0.45,0.26,0.67
		c4.84,12.38,7.61,27.68,7.61,41.98h-12.79v-21.32h-8.53v21.32h-47.61l-7.82-43.03v-1.21c1.92-4.61,4.33-8.99,7.21-13.07l5.74,20.1
		c0.65,2.26,3.01,3.58,5.27,2.93c0.5-0.14,0.97-0.38,1.39-0.69l14.5-10.87l14.5,10.87c1.88,1.41,4.56,1.03,5.97-0.85
		c0.31-0.42,0.55-0.89,0.69-1.39l5.74-20.11c2.88,4.08,5.3,8.46,7.21,13.07v1.59L434.47,247.06z M384.42,221.34l9.65,16.08
		l-9.02,6.77l-5.51-19.29C381.05,223.57,382.68,222.38,384.42,221.34L384.42,221.34z M399.7,206.91c2.11,0,4.2-0.45,6.12-1.32
		l2.17,10.83l-8.29,13.81l-8.29-13.81l2.17-10.83C395.5,206.46,397.59,206.91,399.7,206.91z M414.99,221.34
		c1.73,1.04,3.37,2.23,4.89,3.56l-5.51,19.29l-9.02-6.77L414.99,221.34z M382.64,185.58V170.3c11.22-0.02,21.48-6.3,26.6-16.29
		c4.54,1.74,7.53,6.1,7.52,10.96v20.62c-0.01,2.25-1.18,4.32-3.11,5.49l-10.66,6.4c-2.03,1.22-4.56,1.22-6.58,0l-10.66-6.4
		C383.83,189.91,382.65,187.83,382.64,185.58L382.64,185.58z M319.22,230h31.44c3.53,0,6.39,2.87,6.4,6.4v6.4h-21.32
		C327.96,242.78,321.17,237.53,319.22,230z M348.53,283.3v-31.98h9.23l6.98,38.38h-9.82C351.39,289.7,348.53,286.84,348.53,283.3z"
		/>
	<path class="st11" d="M220.6,141.51c0-0.59,0.48-1.07,1.07-1.07h135.39v-8.53H221.66c-5.3,0.01-9.59,4.3-9.59,9.59v28.78h8.53
		V141.51z"/>
</g>
</svg>
